<?xml version="1.0" encoding="us-ascii" standalone="no"?><svg xmlns="http://www.w3.org/2000/svg" xmlns:xlink="http://www.w3.org/1999/xlink" contentStyleType="text/css" height="1516px" preserveAspectRatio="none" style="width:2369px;height:1516px;background:#FFFFFF;" version="1.1" viewBox="0 0 2369 1516" width="2369px" zoomAndPan="magnify"><defs/><g><!--class InteractionVisitor--><g id="elem_InteractionVisitor"><rect codeLine="257" fill="#F1F1F1" height="227.5313" id="InteractionVisitor" rx="2.5" ry="2.5" style="stroke:#181818;stroke-width:0.5;" width="427" x="1464.5" y="521.85"/><ellipse cx="1573.25" cy="538.4906" fill="#B4A7E5" rx="11" ry="11" style="stroke:#181818;stroke-width:1.0;"/><path d="M1569.1719,534.2563 L1569.1719,532.1 L1576.5625,532.1 L1576.5625,534.2563 L1574.0938,534.2563 L1574.0938,542.3344 L1576.5625,542.3344 L1576.5625,544.4906 L1569.1719,544.4906 L1569.1719,542.3344 L1571.6406,542.3344 L1571.6406,534.2563 L1569.1719,534.2563 Z " fill="#000000"/><text fill="#000000" font-family="sans-serif" font-size="20" font-style="italic" font-weight="bold" lengthAdjust="spacing" textLength="201" x="1593.75" y="545.4145">InteractionVisitor</text><line style="stroke:#181818;stroke-width:0.5;" x1="1465.5" x2="1890.5" y1="555.1313" y2="555.1313"/><text fill="#000000" font-family="sans-serif" font-size="20" lengthAdjust="spacing" textLength="265" x="1470.5" y="577.6957">+visit(player: Player): void</text><text fill="#000000" font-family="sans-serif" font-size="20" lengthAdjust="spacing" textLength="255" x="1470.5" y="600.977">+visit(pellet: Pellet): void</text><text fill="#000000" font-family="sans-serif" font-size="20" lengthAdjust="spacing" textLength="314" x="1470.5" y="624.2582">+visit(pellet: SuperPellet): void</text><text fill="#000000" font-family="sans-serif" font-size="20" lengthAdjust="spacing" textLength="257" x="1470.5" y="647.5395">+visit(vader: Vader): void</text><text fill="#000000" font-family="sans-serif" font-size="20" lengthAdjust="spacing" textLength="233" x="1470.5" y="670.8207">+visit(luke: Luke): void</text><text fill="#000000" font-family="sans-serif" font-size="20" lengthAdjust="spacing" textLength="219" x="1470.5" y="694.102">+visit(sith: Sith): void</text><text fill="#000000" font-family="sans-serif" font-size="20" lengthAdjust="spacing" textLength="415" x="1470.5" y="717.3832">+visit(stormTrooper: StormTrooper): void</text><text fill="#000000" font-family="sans-serif" font-size="20" lengthAdjust="spacing" textLength="323" x="1470.5" y="740.6645">+visit(bobaFett: BobaFett): void</text></g><!--class SithInteractionVisitor--><g id="elem_SithInteractionVisitor"><rect codeLine="398" fill="#F1F1F1" height="33.2813" id="SithInteractionVisitor" rx="2.5" ry="2.5" style="stroke:#181818;stroke-width:0.5;" width="278" x="1203" y="985.71"/><ellipse cx="1218" cy="1002.3506" fill="#ADD1B2" rx="11" ry="11" style="stroke:#181818;stroke-width:1.0;"/><path d="M1220.9688,1007.9913 Q1220.3906,1008.2881 1219.75,1008.4288 Q1219.1094,1008.585 1218.4063,1008.585 Q1215.9063,1008.585 1214.5781,1006.9444 Q1213.2656,1005.2881 1213.2656,1002.1631 Q1213.2656,999.0381 1214.5781,997.3819 Q1215.9063,995.7256 1218.4063,995.7256 Q1219.1094,995.7256 1219.75,995.8819 Q1220.4063,996.0381 1220.9688,996.335 L1220.9688,999.0538 Q1220.3438,998.4756 1219.75,998.21 Q1219.1563,997.9288 1218.5313,997.9288 Q1217.1875,997.9288 1216.5,999.0069 Q1215.8125,1000.0694 1215.8125,1002.1631 Q1215.8125,1004.2569 1216.5,1005.335 Q1217.1875,1006.3975 1218.5313,1006.3975 Q1219.1563,1006.3975 1219.75,1006.1319 Q1220.3438,1005.8506 1220.9688,1005.2725 L1220.9688,1007.9913 Z " fill="#000000"/><text fill="#000000" font-family="sans-serif" font-size="20" font-weight="bold" lengthAdjust="spacing" textLength="246" x="1232" y="1009.2745">SithInteractionVisitor</text></g><!--class LukeInteractionVisitor--><g id="elem_LukeInteractionVisitor"><rect codeLine="423" fill="#F1F1F1" height="33.2813" id="LukeInteractionVisitor" rx="2.5" ry="2.5" style="stroke:#181818;stroke-width:0.5;" width="287" x="1494.5" y="1332.44"/><ellipse cx="1509.5" cy="1349.0806" fill="#ADD1B2" rx="11" ry="11" style="stroke:#181818;stroke-width:1.0;"/><path d="M1512.4688,1354.7213 Q1511.8906,1355.0181 1511.25,1355.1588 Q1510.6094,1355.315 1509.9063,1355.315 Q1507.4063,1355.315 1506.0781,1353.6744 Q1504.7656,1352.0181 1504.7656,1348.8931 Q1504.7656,1345.7681 1506.0781,1344.1119 Q1507.4063,1342.4556 1509.9063,1342.4556 Q1510.6094,1342.4556 1511.25,1342.6119 Q1511.9063,1342.7681 1512.4688,1343.065 L1512.4688,1345.7838 Q1511.8438,1345.2056 1511.25,1344.94 Q1510.6563,1344.6588 1510.0313,1344.6588 Q1508.6875,1344.6588 1508,1345.7369 Q1507.3125,1346.7994 1507.3125,1348.8931 Q1507.3125,1350.9869 1508,1352.065 Q1508.6875,1353.1275 1510.0313,1353.1275 Q1510.6563,1353.1275 1511.25,1352.8619 Q1511.8438,1352.5806 1512.4688,1352.0025 L1512.4688,1354.7213 Z " fill="#000000"/><text fill="#000000" font-family="sans-serif" font-size="20" font-weight="bold" lengthAdjust="spacing" textLength="255" x="1523.5" y="1356.0045">LukeInteractionVisitor</text></g><!--class VaderInteractionVisitor--><g id="elem_VaderInteractionVisitor"><rect codeLine="509" fill="#F1F1F1" height="64.5625" id="VaderInteractionVisitor" rx="2.5" ry="2.5" style="stroke:#181818;stroke-width:0.5;" width="300" x="2030" y="970.07"/><ellipse cx="2045" cy="986.7106" fill="#ADD1B2" rx="11" ry="11" style="stroke:#181818;stroke-width:1.0;"/><path d="M2047.9688,992.3513 Q2047.3906,992.6481 2046.75,992.7888 Q2046.1094,992.945 2045.4063,992.945 Q2042.9063,992.945 2041.5781,991.3044 Q2040.2656,989.6481 2040.2656,986.5231 Q2040.2656,983.3981 2041.5781,981.7419 Q2042.9063,980.0856 2045.4063,980.0856 Q2046.1094,980.0856 2046.75,980.2419 Q2047.4063,980.3981 2047.9688,980.695 L2047.9688,983.4138 Q2047.3438,982.8356 2046.75,982.57 Q2046.1563,982.2888 2045.5313,982.2888 Q2044.1875,982.2888 2043.5,983.3669 Q2042.8125,984.4294 2042.8125,986.5231 Q2042.8125,988.6169 2043.5,989.695 Q2044.1875,990.7575 2045.5313,990.7575 Q2046.1563,990.7575 2046.75,990.4919 Q2047.3438,990.2106 2047.9688,989.6325 L2047.9688,992.3513 Z " fill="#000000"/><text fill="#000000" font-family="sans-serif" font-size="20" font-weight="bold" lengthAdjust="spacing" textLength="268" x="2059" y="993.6345">VaderInteractionVisitor</text><line style="stroke:#181818;stroke-width:0.5;" x1="2031" x2="2329" y1="1003.3513" y2="1003.3513"/><text fill="#000000" font-family="sans-serif" font-size="20" lengthAdjust="spacing" textLength="233" x="2036" y="1025.9157">+visit(luke: Luke): void</text></g><!--class PlayerVisitor--><g id="elem_PlayerVisitor"><rect codeLine="447" fill="#F1F1F1" height="250.8125" id="PlayerVisitor" rx="2.5" ry="2.5" style="stroke:#181818;stroke-width:0.5;" width="381" x="575.5" y="876.94"/><ellipse cx="687.75" cy="893.5806" fill="#A9DCDF" rx="11" ry="11" style="stroke:#181818;stroke-width:1.0;"/><path d="M687.8594,888.9244 L686.7031,894.0025 L689.0313,894.0025 L687.8594,888.9244 Z M686.375,886.69 L689.3594,886.69 L692.7188,899.0806 L690.2656,899.0806 L689.5,896.0181 L686.2188,896.0181 L685.4688,899.0806 L683.0313,899.0806 L686.375,886.69 Z " fill="#000000"/><text fill="#000000" font-family="sans-serif" font-size="20" font-style="italic" font-weight="bold" lengthAdjust="spacing" textLength="148" x="708.25" y="900.5045">PlayerVisitor</text><line style="stroke:#181818;stroke-width:0.5;" x1="576.5" x2="955.5" y1="910.2213" y2="910.2213"/><text fill="#000000" font-family="sans-serif" font-size="20" lengthAdjust="spacing" textLength="201" x="581.5" y="932.7857">#getPlayer(): Player</text><text fill="#000000" font-family="sans-serif" font-size="20" lengthAdjust="spacing" textLength="227" x="581.5" y="956.067">#setRedSprites(): void</text><text fill="#000000" font-family="sans-serif" font-size="20" font-style="italic" lengthAdjust="spacing" textLength="197" x="581.5" y="979.3482">+isScary(): boolean</text><text fill="#000000" font-family="sans-serif" font-size="20" font-style="italic" lengthAdjust="spacing" textLength="263" x="581.5" y="1002.6295">+isInteractable(): boolean</text><text fill="#000000" font-family="sans-serif" font-size="20" font-style="italic" lengthAdjust="spacing" textLength="235" x="581.5" y="1025.9107">+eatSuperPellet(): void</text><text fill="#000000" font-family="sans-serif" font-size="20" font-style="italic" lengthAdjust="spacing" textLength="118" x="581.5" y="1049.192">+kill(): void</text><text fill="#000000" font-family="sans-serif" font-size="20" lengthAdjust="spacing" textLength="164" x="581.5" y="1072.4732">+dispose(): void</text><text fill="#000000" font-family="sans-serif" font-size="20" lengthAdjust="spacing" textLength="255" x="581.5" y="1095.7545">+visit(pellet: Pellet): void</text><text fill="#000000" font-family="sans-serif" font-size="20" lengthAdjust="spacing" textLength="369" x="581.5" y="1119.0357">+visit(superPellet: SuperPellet): void</text></g><!--class Interactable--><g id="elem_Interactable"><rect codeLine="276" fill="#F1F1F1" height="64.5625" id="Interactable" rx="2.5" ry="2.5" style="stroke:#181818;stroke-width:0.5;" width="364" x="536" y="190.39"/><ellipse cx="643.75" cy="207.0306" fill="#B4A7E5" rx="11" ry="11" style="stroke:#181818;stroke-width:1.0;"/><path d="M639.6719,202.7963 L639.6719,200.64 L647.0625,200.64 L647.0625,202.7963 L644.5938,202.7963 L644.5938,210.8744 L647.0625,210.8744 L647.0625,213.0306 L639.6719,213.0306 L639.6719,210.8744 L642.1406,210.8744 L642.1406,202.7963 L639.6719,202.7963 Z " fill="#000000"/><text fill="#000000" font-family="sans-serif" font-size="20" font-style="italic" font-weight="bold" lengthAdjust="spacing" textLength="140" x="664.25" y="213.9545">Interactable</text><line style="stroke:#181818;stroke-width:0.5;" x1="537" x2="899" y1="223.6713" y2="223.6713"/><text fill="#000000" font-family="sans-serif" font-size="20" lengthAdjust="spacing" textLength="352" x="542" y="246.2357">+accept(v: InteractionVisitor): void</text></g><!--class Ghost--><g id="elem_Ghost"><rect codeLine="194" fill="#F1F1F1" height="375.2188" id="Ghost" rx="2.5" ry="2.5" style="stroke:#181818;stroke-width:0.5;" width="342" x="1589" y="35.07"/><ellipse cx="1722.75" cy="51.7106" fill="#A9DCDF" rx="11" ry="11" style="stroke:#181818;stroke-width:1.0;"/><path d="M1722.8594,47.0544 L1721.7031,52.1325 L1724.0313,52.1325 L1722.8594,47.0544 Z M1721.375,44.82 L1724.3594,44.82 L1727.7188,57.2106 L1725.2656,57.2106 L1724.5,54.1481 L1721.2188,54.1481 L1720.4688,57.2106 L1718.0313,57.2106 L1721.375,44.82 Z " fill="#000000"/><text fill="#000000" font-family="sans-serif" font-size="20" font-style="italic" font-weight="bold" lengthAdjust="spacing" textLength="66" x="1743.25" y="58.6345">Ghost</text><line style="stroke:#181818;stroke-width:0.5;" x1="1590" x2="1930" y1="68.3513" y2="68.3513"/><text fill="#000000" font-family="sans-serif" font-size="20" lengthAdjust="spacing" textLength="315" x="1595" y="90.9157">-pathToTarget: List&lt;Direction&gt;</text><text fill="#000000" font-family="sans-serif" font-size="20" lengthAdjust="spacing" textLength="148" x="1595" y="114.197">-pathIndex: int</text><text fill="#000000" font-family="sans-serif" font-size="20" lengthAdjust="spacing" textLength="182" x="1595" y="137.4782">-moveCounter: int</text><text fill="#000000" font-family="sans-serif" font-size="20" lengthAdjust="spacing" textLength="182" x="1595" y="160.7595">-blinking: boolean</text><text fill="#000000" font-family="sans-serif" font-size="20" lengthAdjust="spacing" textLength="216" x="1595" y="184.0407">-goingHome: boolean</text><text fill="#000000" font-family="sans-serif" font-size="20" lengthAdjust="spacing" textLength="242" x="1595" y="207.322">-pathUpdateInterval: int</text><line style="stroke:#181818;stroke-width:0.5;" x1="1590" x2="1930" y1="216.0388" y2="216.0388"/><text fill="#000000" font-family="sans-serif" font-size="20" lengthAdjust="spacing" textLength="235" x="1595" y="238.6032">+toggleBlinking(): void</text><text fill="#000000" font-family="sans-serif" font-size="20" lengthAdjust="spacing" textLength="234" x="1595" y="261.8845">+getMoveInterval(): int</text><text fill="#000000" font-family="sans-serif" font-size="20" lengthAdjust="spacing" textLength="268" x="1595" y="285.1657">+getNextMove(): Direction</text><text fill="#000000" font-family="sans-serif" font-size="20" lengthAdjust="spacing" textLength="195" x="1595" y="308.447">+sendHome(): void</text><text fill="#000000" font-family="sans-serif" font-size="20" lengthAdjust="spacing" textLength="330" x="1595" y="331.7282">-updatePathTo(target: Cell): void</text><text fill="#000000" font-family="sans-serif" font-size="20" lengthAdjust="spacing" textLength="277" x="1595" y="355.0095">-updatePathToHome(): void</text><text fill="#000000" font-family="sans-serif" font-size="20" lengthAdjust="spacing" textLength="279" x="1595" y="378.2907">-updatePathToPlayer(): void</text><text fill="#000000" font-family="sans-serif" font-size="20" lengthAdjust="spacing" textLength="160" x="1595" y="401.572">+getLayer(): int</text></g><!--class Player--><g id="elem_Player"><rect codeLine="431" fill="#F1F1F1" height="328.6563" id="Player" rx="2.5" ry="2.5" style="stroke:#181818;stroke-width:0.5;" width="624" x="406" y="471.29"/><ellipse cx="677.25" cy="487.9306" fill="#ADD1B2" rx="11" ry="11" style="stroke:#181818;stroke-width:1.0;"/><path d="M680.2188,493.5713 Q679.6406,493.8681 679,494.0088 Q678.3594,494.165 677.6563,494.165 Q675.1563,494.165 673.8281,492.5244 Q672.5156,490.8681 672.5156,487.7431 Q672.5156,484.6181 673.8281,482.9619 Q675.1563,481.3056 677.6563,481.3056 Q678.3594,481.3056 679,481.4619 Q679.6563,481.6181 680.2188,481.915 L680.2188,484.6338 Q679.5938,484.0556 679,483.79 Q678.4063,483.5088 677.7813,483.5088 Q676.4375,483.5088 675.75,484.5869 Q675.0625,485.6494 675.0625,487.7431 Q675.0625,489.8369 675.75,490.915 Q676.4375,491.9775 677.7813,491.9775 Q678.4063,491.9775 679,491.7119 Q679.5938,491.4306 680.2188,490.8525 L680.2188,493.5713 Z " fill="#000000"/><text fill="#000000" font-family="sans-serif" font-size="20" font-weight="bold" lengthAdjust="spacing" textLength="73" x="697.75" y="494.8545">Player</text><line style="stroke:#181818;stroke-width:0.5;" x1="407" x2="1029" y1="504.5713" y2="504.5713"/><text fill="#000000" font-family="sans-serif" font-size="20" lengthAdjust="spacing" textLength="303" x="412" y="527.1357">-requestedDirection: Direction</text><text fill="#000000" font-family="sans-serif" font-size="20" lengthAdjust="spacing" textLength="178" x="412" y="550.417">-moveInterval: int</text><line style="stroke:#181818;stroke-width:0.5;" x1="407" x2="1029" y1="559.1338" y2="559.1338"/><text fill="#000000" font-family="sans-serif" font-size="20" lengthAdjust="spacing" textLength="191" x="412" y="581.6982">+isAlive(): boolean</text><text fill="#000000" font-family="sans-serif" font-size="20" lengthAdjust="spacing" textLength="197" x="412" y="604.9795">+isScary(): boolean</text><text fill="#000000" font-family="sans-serif" font-size="20" lengthAdjust="spacing" textLength="412" x="412" y="628.2607">+setHandler(handler: PlayerVisitor): void</text><text fill="#000000" font-family="sans-serif" font-size="20" lengthAdjust="spacing" textLength="612" x="412" y="651.542">+setRequestedDirection(requestedDirection: Direction): void</text><text fill="#000000" font-family="sans-serif" font-size="20" lengthAdjust="spacing" textLength="234" x="412" y="674.8232">+getMoveInterval(): int</text><text fill="#000000" font-family="sans-serif" font-size="20" lengthAdjust="spacing" textLength="417" x="412" y="698.1045">+setMoveInterval(moveInterval: int): void</text><text fill="#000000" font-family="sans-serif" font-size="20" lengthAdjust="spacing" textLength="268" x="412" y="721.3857">+getNextMove(): Direction</text><text fill="#000000" font-family="sans-serif" font-size="20" lengthAdjust="spacing" textLength="118" x="412" y="744.667">+kill(): void</text><text fill="#000000" font-family="sans-serif" font-size="20" lengthAdjust="spacing" textLength="160" x="412" y="767.9482">+getLayer(): int</text><text fill="#000000" font-family="sans-serif" font-size="20" lengthAdjust="spacing" textLength="352" x="412" y="791.2295">+accept(v: InteractionVisitor): void</text></g><!--class Pellet--><g id="elem_Pellet"><rect codeLine="369" fill="#F1F1F1" height="87.8438" id="Pellet" rx="2.5" ry="2.5" style="stroke:#181818;stroke-width:0.5;" width="364" x="7" y="591.69"/><ellipse cx="151.25" cy="608.3306" fill="#ADD1B2" rx="11" ry="11" style="stroke:#181818;stroke-width:1.0;"/><path d="M154.2188,613.9713 Q153.6406,614.2681 153,614.4088 Q152.3594,614.565 151.6563,614.565 Q149.1563,614.565 147.8281,612.9244 Q146.5156,611.2681 146.5156,608.1431 Q146.5156,605.0181 147.8281,603.3619 Q149.1563,601.7056 151.6563,601.7056 Q152.3594,601.7056 153,601.8619 Q153.6563,602.0181 154.2188,602.315 L154.2188,605.0338 Q153.5938,604.4556 153,604.19 Q152.4063,603.9088 151.7813,603.9088 Q150.4375,603.9088 149.75,604.9869 Q149.0625,606.0494 149.0625,608.1431 Q149.0625,610.2369 149.75,611.315 Q150.4375,612.3775 151.7813,612.3775 Q152.4063,612.3775 153,612.1119 Q153.5938,611.8306 154.2188,611.2525 L154.2188,613.9713 Z " fill="#000000"/><text fill="#000000" font-family="sans-serif" font-size="20" font-weight="bold" lengthAdjust="spacing" textLength="67" x="171.75" y="615.2545">Pellet</text><line style="stroke:#181818;stroke-width:0.5;" x1="8" x2="370" y1="624.9713" y2="624.9713"/><text fill="#000000" font-family="sans-serif" font-size="20" lengthAdjust="spacing" textLength="160" x="13" y="647.5357">+getLayer(): int</text><text fill="#000000" font-family="sans-serif" font-size="20" lengthAdjust="spacing" textLength="352" x="13" y="670.817">+accept(v: InteractionVisitor): void</text></g><!--class Luke--><g id="elem_Luke"><rect codeLine="417" fill="#F1F1F1" height="95.8438" id="Luke" rx="2.5" ry="2.5" style="stroke:#181818;stroke-width:0.5;" width="364" x="1631" y="954.43"/><ellipse cx="1781.75" cy="971.0706" fill="#ADD1B2" rx="11" ry="11" style="stroke:#181818;stroke-width:1.0;"/><path d="M1784.7188,976.7113 Q1784.1406,977.0081 1783.5,977.1488 Q1782.8594,977.305 1782.1563,977.305 Q1779.6563,977.305 1778.3281,975.6644 Q1777.0156,974.0081 1777.0156,970.8831 Q1777.0156,967.7581 1778.3281,966.1019 Q1779.6563,964.4456 1782.1563,964.4456 Q1782.8594,964.4456 1783.5,964.6019 Q1784.1563,964.7581 1784.7188,965.055 L1784.7188,967.7738 Q1784.0938,967.1956 1783.5,966.93 Q1782.9063,966.6488 1782.2813,966.6488 Q1780.9375,966.6488 1780.25,967.7269 Q1779.5625,968.7894 1779.5625,970.8831 Q1779.5625,972.9769 1780.25,974.055 Q1780.9375,975.1175 1782.2813,975.1175 Q1782.9063,975.1175 1783.5,974.8519 Q1784.0938,974.5706 1784.7188,973.9925 L1784.7188,976.7113 Z " fill="#000000"/><text fill="#000000" font-family="sans-serif" font-size="20" font-weight="bold" lengthAdjust="spacing" textLength="54" x="1802.25" y="977.9945">Luke</text><line style="stroke:#181818;stroke-width:0.5;" x1="1632" x2="1994" y1="987.7113" y2="987.7113"/><text fill="#000000" font-family="sans-serif" font-size="20" lengthAdjust="spacing" textLength="270" x="1637" y="1010.2757">-handler: InteractionVisitor</text><line style="stroke:#181818;stroke-width:0.5;" x1="1632" x2="1994" y1="1018.9925" y2="1018.9925"/><text fill="#000000" font-family="sans-serif" font-size="20" lengthAdjust="spacing" textLength="352" x="1637" y="1041.557">+accept(v: InteractionVisitor): void</text></g><!--class Vader--><g id="elem_Vader"><rect codeLine="503" fill="#F1F1F1" height="95.8438" id="Vader" rx="2.5" ry="2.5" style="stroke:#181818;stroke-width:0.5;" width="364" x="1998" y="587.69"/><ellipse cx="2142.25" cy="604.3306" fill="#ADD1B2" rx="11" ry="11" style="stroke:#181818;stroke-width:1.0;"/><path d="M2145.2188,609.9713 Q2144.6406,610.2681 2144,610.4088 Q2143.3594,610.565 2142.6563,610.565 Q2140.1563,610.565 2138.8281,608.9244 Q2137.5156,607.2681 2137.5156,604.1431 Q2137.5156,601.0181 2138.8281,599.3619 Q2140.1563,597.7056 2142.6563,597.7056 Q2143.3594,597.7056 2144,597.8619 Q2144.6563,598.0181 2145.2188,598.315 L2145.2188,601.0338 Q2144.5938,600.4556 2144,600.19 Q2143.4063,599.9088 2142.7813,599.9088 Q2141.4375,599.9088 2140.75,600.9869 Q2140.0625,602.0494 2140.0625,604.1431 Q2140.0625,606.2369 2140.75,607.315 Q2141.4375,608.3775 2142.7813,608.3775 Q2143.4063,608.3775 2144,608.1119 Q2144.5938,607.8306 2145.2188,607.2525 L2145.2188,609.9713 Z " fill="#000000"/><text fill="#000000" font-family="sans-serif" font-size="20" font-weight="bold" lengthAdjust="spacing" textLength="67" x="2162.75" y="611.2545">Vader</text><line style="stroke:#181818;stroke-width:0.5;" x1="1999" x2="2361" y1="620.9713" y2="620.9713"/><text fill="#000000" font-family="sans-serif" font-size="20" lengthAdjust="spacing" textLength="270" x="2004" y="643.5357">-handler: InteractionVisitor</text><line style="stroke:#181818;stroke-width:0.5;" x1="1999" x2="2361" y1="652.2525" y2="652.2525"/><text fill="#000000" font-family="sans-serif" font-size="20" lengthAdjust="spacing" textLength="352" x="2004" y="674.817">+accept(v: InteractionVisitor): void</text></g><!--class Sith--><g id="elem_Sith"><rect codeLine="392" fill="#F1F1F1" height="95.8438" id="Sith" rx="2.5" ry="2.5" style="stroke:#181818;stroke-width:0.5;" width="364" x="1065" y="587.69"/><ellipse cx="1220.25" cy="604.3306" fill="#ADD1B2" rx="11" ry="11" style="stroke:#181818;stroke-width:1.0;"/><path d="M1223.2188,609.9713 Q1222.6406,610.2681 1222,610.4088 Q1221.3594,610.565 1220.6563,610.565 Q1218.1563,610.565 1216.8281,608.9244 Q1215.5156,607.2681 1215.5156,604.1431 Q1215.5156,601.0181 1216.8281,599.3619 Q1218.1563,597.7056 1220.6563,597.7056 Q1221.3594,597.7056 1222,597.8619 Q1222.6563,598.0181 1223.2188,598.315 L1223.2188,601.0338 Q1222.5938,600.4556 1222,600.19 Q1221.4063,599.9088 1220.7813,599.9088 Q1219.4375,599.9088 1218.75,600.9869 Q1218.0625,602.0494 1218.0625,604.1431 Q1218.0625,606.2369 1218.75,607.315 Q1219.4375,608.3775 1220.7813,608.3775 Q1221.4063,608.3775 1222,608.1119 Q1222.5938,607.8306 1223.2188,607.2525 L1223.2188,609.9713 Z " fill="#000000"/><text fill="#000000" font-family="sans-serif" font-size="20" font-weight="bold" lengthAdjust="spacing" textLength="45" x="1240.75" y="611.2545">Sith</text><line style="stroke:#181818;stroke-width:0.5;" x1="1066" x2="1428" y1="620.9713" y2="620.9713"/><text fill="#000000" font-family="sans-serif" font-size="20" lengthAdjust="spacing" textLength="270" x="1071" y="643.5357">-handler: InteractionVisitor</text><line style="stroke:#181818;stroke-width:0.5;" x1="1066" x2="1428" y1="652.2525" y2="652.2525"/><text fill="#000000" font-family="sans-serif" font-size="20" lengthAdjust="spacing" textLength="352" x="1071" y="674.817">+accept(v: InteractionVisitor): void</text></g><!--class BobaFett--><g id="elem_BobaFett"><rect codeLine="268" fill="#F1F1F1" height="142.4063" id="BobaFett" rx="2.5" ry="2.5" style="stroke:#181818;stroke-width:0.5;" width="364" x="1190" y="151.47"/><ellipse cx="1315.25" cy="168.1106" fill="#ADD1B2" rx="11" ry="11" style="stroke:#181818;stroke-width:1.0;"/><path d="M1318.2188,173.7513 Q1317.6406,174.0481 1317,174.1888 Q1316.3594,174.345 1315.6563,174.345 Q1313.1563,174.345 1311.8281,172.7044 Q1310.5156,171.0481 1310.5156,167.9231 Q1310.5156,164.7981 1311.8281,163.1419 Q1313.1563,161.4856 1315.6563,161.4856 Q1316.3594,161.4856 1317,161.6419 Q1317.6563,161.7981 1318.2188,162.095 L1318.2188,164.8138 Q1317.5938,164.2356 1317,163.97 Q1316.4063,163.6888 1315.7813,163.6888 Q1314.4375,163.6888 1313.75,164.7669 Q1313.0625,165.8294 1313.0625,167.9231 Q1313.0625,170.0169 1313.75,171.095 Q1314.4375,172.1575 1315.7813,172.1575 Q1316.4063,172.1575 1317,171.8919 Q1317.5938,171.6106 1318.2188,171.0325 L1318.2188,173.7513 Z " fill="#000000"/><text fill="#000000" font-family="sans-serif" font-size="20" font-weight="bold" lengthAdjust="spacing" textLength="105" x="1335.75" y="175.0345">BobaFett</text><line style="stroke:#181818;stroke-width:0.5;" x1="1191" x2="1553" y1="184.7513" y2="184.7513"/><text fill="#000000" font-family="sans-serif" font-size="20" lengthAdjust="spacing" textLength="178" x="1196" y="207.3157">-moveInterval: int</text><line style="stroke:#181818;stroke-width:0.5;" x1="1191" x2="1553" y1="216.0325" y2="216.0325"/><text fill="#000000" font-family="sans-serif" font-size="20" lengthAdjust="spacing" textLength="205" x="1196" y="238.597">+moveFaster(): void</text><text fill="#000000" font-family="sans-serif" font-size="20" lengthAdjust="spacing" textLength="234" x="1196" y="261.8782">+getMoveInterval(): int</text><text fill="#000000" font-family="sans-serif" font-size="20" lengthAdjust="spacing" textLength="352" x="1196" y="285.1595">+accept(v: InteractionVisitor): void</text></g><!--class PlayerInvincibleVisitor--><g id="elem_PlayerInvincibleVisitor"><rect codeLine="94" fill="#F1F1F1" height="320.6563" id="PlayerInvincibleVisitor" rx="2.5" ry="2.5" style="stroke:#181818;stroke-width:0.5;" width="427" x="968.5" y="1188.75"/><ellipse cx="1049.25" cy="1205.3906" fill="#ADD1B2" rx="11" ry="11" style="stroke:#181818;stroke-width:1.0;"/><path d="M1052.2188,1211.0313 Q1051.6406,1211.3281 1051,1211.4688 Q1050.3594,1211.625 1049.6563,1211.625 Q1047.1563,1211.625 1045.8281,1209.9844 Q1044.5156,1208.3281 1044.5156,1205.2031 Q1044.5156,1202.0781 1045.8281,1200.4219 Q1047.1563,1198.7656 1049.6563,1198.7656 Q1050.3594,1198.7656 1051,1198.9219 Q1051.6563,1199.0781 1052.2188,1199.375 L1052.2188,1202.0938 Q1051.5938,1201.5156 1051,1201.25 Q1050.4063,1200.9688 1049.7813,1200.9688 Q1048.4375,1200.9688 1047.75,1202.0469 Q1047.0625,1203.1094 1047.0625,1205.2031 Q1047.0625,1207.2969 1047.75,1208.375 Q1048.4375,1209.4375 1049.7813,1209.4375 Q1050.4063,1209.4375 1051,1209.1719 Q1051.5938,1208.8906 1052.2188,1208.3125 L1052.2188,1211.0313 Z " fill="#000000"/><text fill="#000000" font-family="sans-serif" font-size="20" font-weight="bold" lengthAdjust="spacing" textLength="257" x="1069.75" y="1212.3145">PlayerInvincibleVisitor</text><line style="stroke:#181818;stroke-width:0.5;" x1="969.5" x2="1394.5" y1="1222.0313" y2="1222.0313"/><text fill="#000000" font-family="sans-serif" font-size="20" lengthAdjust="spacing" textLength="197" x="974.5" y="1244.5957">+isScary(): boolean</text><text fill="#000000" font-family="sans-serif" font-size="20" lengthAdjust="spacing" textLength="263" x="974.5" y="1267.877">+isInteractable(): boolean</text><text fill="#000000" font-family="sans-serif" font-size="20" lengthAdjust="spacing" textLength="235" x="974.5" y="1291.1582">+eatSuperPellet(): void</text><text fill="#000000" font-family="sans-serif" font-size="20" lengthAdjust="spacing" textLength="118" x="974.5" y="1314.4395">+kill(): void</text><text fill="#000000" font-family="sans-serif" font-size="20" lengthAdjust="spacing" textLength="164" x="974.5" y="1337.7207">+dispose(): void</text><text fill="#000000" font-family="sans-serif" font-size="20" lengthAdjust="spacing" textLength="192" x="974.5" y="1361.002">+startTimer(): void</text><text fill="#000000" font-family="sans-serif" font-size="20" lengthAdjust="spacing" textLength="242" x="974.5" y="1384.2832">+endInvincibility(): void</text><text fill="#000000" font-family="sans-serif" font-size="20" lengthAdjust="spacing" textLength="257" x="974.5" y="1407.5645">+visit(vader: Vader): void</text><text fill="#000000" font-family="sans-serif" font-size="20" lengthAdjust="spacing" textLength="233" x="974.5" y="1430.8457">+visit(luke: Luke): void</text><text fill="#000000" font-family="sans-serif" font-size="20" lengthAdjust="spacing" textLength="219" x="974.5" y="1454.127">+visit(sith: Sith): void</text><text fill="#000000" font-family="sans-serif" font-size="20" lengthAdjust="spacing" textLength="415" x="974.5" y="1477.4082">+visit(stormTrooper: StormTrooper): void</text><text fill="#000000" font-family="sans-serif" font-size="20" lengthAdjust="spacing" textLength="323" x="974.5" y="1500.6895">+visit(bobaFett: BobaFett): void</text></g><!--class PlayerDeadVisitor--><g id="elem_PlayerDeadVisitor"><rect codeLine="122" fill="#F1F1F1" height="134.4063" id="PlayerDeadVisitor" rx="2.5" ry="2.5" style="stroke:#181818;stroke-width:0.5;" width="275" x="288.5" y="1281.88"/><ellipse cx="319.7" cy="1298.5206" fill="#ADD1B2" rx="11" ry="11" style="stroke:#181818;stroke-width:1.0;"/><path d="M322.6688,1304.1613 Q322.0906,1304.4581 321.45,1304.5988 Q320.8094,1304.755 320.1063,1304.755 Q317.6063,1304.755 316.2781,1303.1144 Q314.9656,1301.4581 314.9656,1298.3331 Q314.9656,1295.2081 316.2781,1293.5519 Q317.6063,1291.8956 320.1063,1291.8956 Q320.8094,1291.8956 321.45,1292.0519 Q322.1063,1292.2081 322.6688,1292.505 L322.6688,1295.2238 Q322.0438,1294.6456 321.45,1294.38 Q320.8563,1294.0988 320.2313,1294.0988 Q318.8875,1294.0988 318.2,1295.1769 Q317.5125,1296.2394 317.5125,1298.3331 Q317.5125,1300.4269 318.2,1301.505 Q318.8875,1302.5675 320.2313,1302.5675 Q320.8563,1302.5675 321.45,1302.3019 Q322.0438,1302.0206 322.6688,1301.4425 L322.6688,1304.1613 Z " fill="#000000"/><text fill="#000000" font-family="sans-serif" font-size="20" font-weight="bold" lengthAdjust="spacing" textLength="207" x="337.3" y="1305.4445">PlayerDeadVisitor</text><line style="stroke:#181818;stroke-width:0.5;" x1="289.5" x2="562.5" y1="1315.1613" y2="1315.1613"/><text fill="#000000" font-family="sans-serif" font-size="20" lengthAdjust="spacing" textLength="197" x="294.5" y="1337.7257">+isScary(): boolean</text><text fill="#000000" font-family="sans-serif" font-size="20" lengthAdjust="spacing" textLength="263" x="294.5" y="1361.007">+isInteractable(): boolean</text><text fill="#000000" font-family="sans-serif" font-size="20" lengthAdjust="spacing" textLength="235" x="294.5" y="1384.2882">+eatSuperPellet(): void</text><text fill="#000000" font-family="sans-serif" font-size="20" lengthAdjust="spacing" textLength="118" x="294.5" y="1407.5695">+kill(): void</text></g><!--class SuperPellet--><g id="elem_SuperPellet"><rect codeLine="130" fill="#F1F1F1" height="64.5625" id="SuperPellet" rx="2.5" ry="2.5" style="stroke:#181818;stroke-width:0.5;" width="364" x="7" y="970.07"/><ellipse cx="118.25" cy="986.7106" fill="#ADD1B2" rx="11" ry="11" style="stroke:#181818;stroke-width:1.0;"/><path d="M121.2188,992.3513 Q120.6406,992.6481 120,992.7888 Q119.3594,992.945 118.6563,992.945 Q116.1563,992.945 114.8281,991.3044 Q113.5156,989.6481 113.5156,986.5231 Q113.5156,983.3981 114.8281,981.7419 Q116.1563,980.0856 118.6563,980.0856 Q119.3594,980.0856 120,980.2419 Q120.6563,980.3981 121.2188,980.695 L121.2188,983.4138 Q120.5938,982.8356 120,982.57 Q119.4063,982.2888 118.7813,982.2888 Q117.4375,982.2888 116.75,983.3669 Q116.0625,984.4294 116.0625,986.5231 Q116.0625,988.6169 116.75,989.695 Q117.4375,990.7575 118.7813,990.7575 Q119.4063,990.7575 120,990.4919 Q120.5938,990.2106 121.2188,989.6325 L121.2188,992.3513 Z " fill="#000000"/><text fill="#000000" font-family="sans-serif" font-size="20" font-weight="bold" lengthAdjust="spacing" textLength="133" x="138.75" y="993.6345">SuperPellet</text><line style="stroke:#181818;stroke-width:0.5;" x1="8" x2="370" y1="1003.3513" y2="1003.3513"/><text fill="#000000" font-family="sans-serif" font-size="20" lengthAdjust="spacing" textLength="352" x="13" y="1025.9157">+accept(v: InteractionVisitor): void</text></g><!--class PlayerNormalVisitor--><g id="elem_PlayerNormalVisitor"><rect codeLine="150" fill="#F1F1F1" height="157.6875" id="PlayerNormalVisitor" rx="2.5" ry="2.5" style="stroke:#181818;stroke-width:0.5;" width="335" x="598.5" y="1270.24"/><ellipse cx="646.25" cy="1286.8806" fill="#ADD1B2" rx="11" ry="11" style="stroke:#181818;stroke-width:1.0;"/><path d="M649.2188,1292.5213 Q648.6406,1292.8181 648,1292.9588 Q647.3594,1293.115 646.6563,1293.115 Q644.1563,1293.115 642.8281,1291.4744 Q641.5156,1289.8181 641.5156,1286.6931 Q641.5156,1283.5681 642.8281,1281.9119 Q644.1563,1280.2556 646.6563,1280.2556 Q647.3594,1280.2556 648,1280.4119 Q648.6563,1280.5681 649.2188,1280.865 L649.2188,1283.5838 Q648.5938,1283.0056 648,1282.74 Q647.4063,1282.4588 646.7813,1282.4588 Q645.4375,1282.4588 644.75,1283.5369 Q644.0625,1284.5994 644.0625,1286.6931 Q644.0625,1288.7869 644.75,1289.865 Q645.4375,1290.9275 646.7813,1290.9275 Q647.4063,1290.9275 648,1290.6619 Q648.5938,1290.3806 649.2188,1289.8025 L649.2188,1292.5213 Z " fill="#000000"/><text fill="#000000" font-family="sans-serif" font-size="20" font-weight="bold" lengthAdjust="spacing" textLength="231" x="666.75" y="1293.8045">PlayerNormalVisitor</text><line style="stroke:#181818;stroke-width:0.5;" x1="599.5" x2="932.5" y1="1303.5213" y2="1303.5213"/><text fill="#000000" font-family="sans-serif" font-size="20" lengthAdjust="spacing" textLength="197" x="604.5" y="1326.0857">+isScary(): boolean</text><text fill="#000000" font-family="sans-serif" font-size="20" lengthAdjust="spacing" textLength="263" x="604.5" y="1349.367">+isInteractable(): boolean</text><text fill="#000000" font-family="sans-serif" font-size="20" lengthAdjust="spacing" textLength="235" x="604.5" y="1372.6482">+eatSuperPellet(): void</text><text fill="#000000" font-family="sans-serif" font-size="20" lengthAdjust="spacing" textLength="118" x="604.5" y="1395.9295">+kill(): void</text><text fill="#000000" font-family="sans-serif" font-size="20" lengthAdjust="spacing" textLength="323" x="604.5" y="1419.2107">+visit(bobaFett: BobaFett): void</text></g><!--reverse link InteractionVisitor to SithInteractionVisitor--><g id="link_InteractionVisitor_SithInteractionVisitor"><path codeLine="46" d="M1561.7941,762.7586 C1482.9641,848.3286 1394.23,944.65 1356.82,985.26 " fill="none" id="InteractionVisitor-backto-SithInteractionVisitor" style="stroke:#181818;stroke-width:1.0;stroke-dasharray:7.0,7.0;"/><polygon fill="none" points="1573.99,749.52,1557.3813,758.6933,1566.207,766.8239,1573.99,749.52" style="stroke:#181818;stroke-width:1.0;"/></g><!--reverse link InteractionVisitor to LukeInteractionVisitor--><g id="link_InteractionVisitor_LukeInteractionVisitor"><path codeLine="47" d="M1635.9063,766.9735 C1624.5963,806.7435 1618.61,834.74 1613,876.94 C1589.43,1054.36 1624.31,1272.14 1635.03,1332.14 " fill="none" id="InteractionVisitor-backto-LukeInteractionVisitor" style="stroke:#181818;stroke-width:1.0;stroke-dasharray:7.0,7.0;"/><polygon fill="none" points="1640.83,749.66,1630.1351,765.3323,1641.6775,768.6147,1640.83,749.66" style="stroke:#181818;stroke-width:1.0;"/></g><!--reverse link InteractionVisitor to VaderInteractionVisitor--><g id="link_InteractionVisitor_VaderInteractionVisitor"><path codeLine="48" d="M1851.5359,760.2082 C1907.3659,800.1782 1955.79,835.12 2013,876.94 C2055.76,908.2 2104.27,944.42 2137.94,969.69 " fill="none" id="InteractionVisitor-backto-VaderInteractionVisitor" style="stroke:#181818;stroke-width:1.0;stroke-dasharray:7.0,7.0;"/><polygon fill="none" points="1836.9,749.73,1848.0431,765.0868,1855.0286,755.3295,1836.9,749.73" style="stroke:#181818;stroke-width:1.0;"/></g><!--reverse link InteractionVisitor to PlayerVisitor--><g id="link_InteractionVisitor_PlayerVisitor"><path codeLine="49" d="M1518.0664,759.8096 C1490.4564,778.2296 1476.06,785.86 1447,799.94 C1338.16,852.67 1301.98,842.66 1186,876.94 C1111.07,899.09 1028.62,923.5 956.77,944.79 " fill="none" id="InteractionVisitor-backto-PlayerVisitor" style="stroke:#181818;stroke-width:1.0;stroke-dasharray:7.0,7.0;"/><polygon fill="none" points="1533.04,749.82,1514.7366,754.8184,1521.3963,764.8008,1533.04,749.82" style="stroke:#181818;stroke-width:1.0;"/></g><!--reverse link Interactable to Ghost--><g id="link_Interactable_Ghost"><path codeLine="53" d="M788.9163,181.2062 C874.5663,132.7462 1030.46,52.79 1189.5,20.07 C1229.22,11.89 1516.46,6 1554.5,20.07 C1566.25,24.41 1577.66,29.84 1588.69,36.1 " fill="none" id="Interactable-backto-Ghost" style="stroke:#181818;stroke-width:1.0;stroke-dasharray:7.0,7.0;"/><polygon fill="none" points="773.25,190.07,791.8709,186.4283,785.9617,175.9841,773.25,190.07" style="stroke:#181818;stroke-width:1.0;"/></g><!--reverse link Interactable to Player--><g id="link_Interactable_Player"><path codeLine="54" d="M718,273.24 C718,319.47 718,390.86 718,471.25 " fill="none" id="Interactable-backto-Player" style="stroke:#181818;stroke-width:1.0;stroke-dasharray:7.0,7.0;"/><polygon fill="none" points="718,255.24,712,273.24,724,273.24,718,255.24" style="stroke:#181818;stroke-width:1.0;"/></g><!--reverse link Interactable to Pellet--><g id="link_Interactable_Pellet"><path codeLine="55" d="M660.0467,265.9636 C596.4967,312.4936 489.27,391.79 388,471.29 C337.2,511.16 280.34,558.06 240.46,591.35 " fill="none" id="Interactable-backto-Pellet" style="stroke:#181818;stroke-width:1.0;stroke-dasharray:7.0,7.0;"/><polygon fill="none" points="674.57,255.33,656.5022,261.1226,663.5913,270.8047,674.57,255.33" style="stroke:#181818;stroke-width:1.0;"/></g><!--link InteractionVisitor to Luke--><!--reverse link Ghost to Vader--><g id="link_Ghost_Vader"><path codeLine="76" d="M1944.3054,403.9989 C2016.8854,475.0189 2082.97,539.68 2131.97,587.62 " fill="none" id="Ghost-backto-Vader" style="stroke:#181818;stroke-width:1.0;"/><polygon fill="none" points="1931.44,391.41,1940.1091,408.2874,1948.5017,399.7104,1931.44,391.41" style="stroke:#181818;stroke-width:1.0;"/></g><!--reverse link Ghost to Luke--><g id="link_Ghost_Luke"><path codeLine="77" d="M1893.8425,426.9035 C1903.0125,446.7735 1903.33,450.86 1909,471.29 C1948.08,612.03 1941.22,657.47 1909,799.94 C1896.31,856.05 1866.04,914.83 1842.86,954.31 " fill="none" id="Ghost-backto-Luke" style="stroke:#181818;stroke-width:1.0;"/><polygon fill="none" points="1886.3,410.56,1888.3947,429.4177,1899.2904,424.3893,1886.3,410.56" style="stroke:#181818;stroke-width:1.0;"/></g><!--reverse link Ghost to Sith--><g id="link_Ghost_Sith"><path codeLine="78" d="M1574.2812,409.0287 C1568.8012,413.2587 1577.53,406.36 1572,410.29 C1521.61,446.09 1499.06,437.96 1447,471.29 C1393.01,505.85 1336.93,552.76 1297.94,587.44 " fill="none" id="Ghost-backto-Sith" style="stroke:#181818;stroke-width:1.0;"/><polygon fill="none" points="1588.53,398.03,1570.6149,404.279,1577.9474,413.7783,1588.53,398.03" style="stroke:#181818;stroke-width:1.0;"/></g><!--link BobaFett to Ghost--><g id="link_BobaFett_Ghost"><path codeLine="79" d="M1554.25,222.68 C1565.77,222.68 1559.29,222.68 1570.81,222.68 " fill="none" id="BobaFett-to-Ghost" style="stroke:#181818;stroke-width:1.0;"/><polygon fill="none" points="1588.81,222.68,1570.81,216.68,1570.81,228.68,1588.81,222.68" style="stroke:#181818;stroke-width:1.0;"/></g><!--link Player to PlayerVisitor--><g id="link_Player_PlayerVisitor"><path codeLine="85" d="M739.54,800.31 C742.91,825.88 746.34,851.94 749.56,876.45 " fill="none" id="Player-PlayerVisitor" style="stroke:#181818;stroke-width:1.0;"/><polygon fill="#000000" points="749.6524,843.4637,751.386,834.1124,745.5584,834.8794,749.6524,843.4637" style="stroke:#000000;stroke-width:1.0;"/><text fill="#000000" font-family="sans-serif" font-size="13" lengthAdjust="spacing" textLength="48" x="758" y="843.0069">handler</text></g><!--reverse link PlayerVisitor to PlayerInvincibleVisitor--><g id="link_PlayerVisitor_PlayerInvincibleVisitor"><path codeLine="580" d="M930.3411,1139.5334 C953.9511,1159.0934 964.78,1168.07 989.18,1188.3 " fill="none" id="PlayerVisitor-backto-PlayerInvincibleVisitor" style="stroke:#181818;stroke-width:1.0;"/><polygon fill="none" points="916.48,1128.05,926.5133,1144.1538,934.1689,1134.913,916.48,1128.05" style="stroke:#181818;stroke-width:1.0;"/></g><!--reverse link PlayerVisitor to PlayerDeadVisitor--><g id="link_PlayerVisitor_PlayerDeadVisitor"><path codeLine="584" d="M628.4436,1140.8094 C608.2936,1161.0594 600.39,1169.08 581,1188.75 C551.07,1219.13 518.1,1252.97 490.29,1281.62 " fill="none" id="PlayerVisitor-backto-PlayerDeadVisitor" style="stroke:#181818;stroke-width:1.0;"/><polygon fill="none" points="641.14,1128.05,624.1905,1136.5773,632.6968,1145.0415,641.14,1128.05" style="stroke:#181818;stroke-width:1.0;"/></g><!--reverse link Pellet to SuperPellet--><g id="link_Pellet_SuperPellet"><path codeLine="585" d="M189,697.89 C189,772.23 189,904.52 189,969.84 " fill="none" id="Pellet-backto-SuperPellet" style="stroke:#181818;stroke-width:1.0;"/><polygon fill="none" points="189,679.89,183,697.89,195,697.89,189,679.89" style="stroke:#181818;stroke-width:1.0;"/></g><!--reverse link PlayerVisitor to PlayerNormalVisitor--><g id="link_PlayerVisitor_PlayerNormalVisitor"><path codeLine="586" d="M766,1145.8 C766,1193.25 766,1227.95 766,1269.91 " fill="none" id="PlayerVisitor-backto-PlayerNormalVisitor" style="stroke:#181818;stroke-width:1.0;"/><polygon fill="none" points="766,1127.8,760,1145.8,772,1145.8,766,1127.8" style="stroke:#181818;stroke-width:1.0;"/></g><!--reverse link Sith to SithInteractionVisitor--><g id="link_Sith_SithInteractionVisitor"><path codeLine="606" d="M1263.3533,699.4033 C1284.8933,782.0933 1324.35,933.58 1337.88,985.55 " fill="none" id="Sith-backto-SithInteractionVisitor" style="stroke:#181818;stroke-width:1.0;"/><ellipse cx="1261.3366" cy="691.6617" fill="#FFFFFF" rx="8" ry="8" style="stroke:#181818;stroke-width:1.0;"/><line style="stroke:#181818;stroke-width:1.0;" x1="1263.3533" x2="1259.32" y1="699.4033" y2="683.92"/><line style="stroke:#181818;stroke-width:1.0;" x1="1253.595" x2="1269.0783" y1="693.6783" y2="689.645"/></g><!--reverse link Luke to LukeInteractionVisitor--><g id="link_Luke_LukeInteractionVisitor"><path codeLine="610" d="M1781.7881,1064.8272 C1742.0081,1143.1972 1671.45,1282.19 1646.15,1332.02 " fill="none" id="Luke-backto-LukeInteractionVisitor" style="stroke:#181818;stroke-width:1.0;"/><ellipse cx="1785.409" cy="1057.6936" fill="#FFFFFF" rx="8" ry="8" style="stroke:#181818;stroke-width:1.0;"/><line style="stroke:#181818;stroke-width:1.0;" x1="1781.7881" x2="1789.03" y1="1064.8272" y2="1050.56"/><line style="stroke:#181818;stroke-width:1.0;" x1="1778.2754" x2="1792.5427" y1="1054.0727" y2="1061.3146"/></g><!--reverse link Vader to VaderInteractionVisitor--><g id="link_Vader_VaderInteractionVisitor"><path codeLine="620" d="M2180,699.92 C2180,775.48 2180,905.41 2180,969.66 " fill="none" id="Vader-backto-VaderInteractionVisitor" style="stroke:#181818;stroke-width:1.0;"/><ellipse cx="2180" cy="691.92" fill="#FFFFFF" rx="8" ry="8" style="stroke:#181818;stroke-width:1.0;"/><line style="stroke:#181818;stroke-width:1.0;" x1="2180" x2="2180" y1="699.92" y2="683.92"/><line style="stroke:#181818;stroke-width:1.0;" x1="2172" x2="2188" y1="691.92" y2="691.92"/></g><!--SRC=[rHjhSzisydFrAt2JpeIsfQJNZngFEuuVYNkExRFKvAwnfmEHi8Gp1V18KBRQkB_zTl4W0PAIfLxRJ6UIYRYxM2ns5ulT1VAIZCQ7uxEZtalobWcMKyKICbcIe_4L6P2PKbanVFrwojMidBoAvVnrGUSbItEPKf6yZbK60oyknoT3ecQy8F27aeBFivJVSU2qO7d1fI3o3l2C99nESped3y2FI94kISvIjg12aJYbHS4AegIcNF22AvcJX1LyAaX6bMAvwC5i8xLCMM_64qROF5DBCcVp2Km3A0rqdyKz5nd5sJJhGwLoFYaLEukb6F6V6Vd68pb2abCfbEPE9Z9DcjYAWIP31jz-W_AymqaBEGTnKZPdGXNa3WJ7HNYAS2iV450YKXbzmMgdJ6dYkp9DUpcRomKZ9q9njHpJujv1BcJ2tE-tTCx-mPRdl51eCXzy9Wf5HSpUmG9gpEu8L3dVTP_dRC7IwcltYANUroZBkMBDxwBwlgA2LNA-dSa2L0PEuo0Wrs52CnMAzP6BH3vKJ3-m60HoNzTi2YvoUNScO1GhL0K73vDpwvKr-J7FOJYCg055d3F5ZgJC4owe9-qRIVF4VRodsHNDYrgowr88EaahsNTFmKBrqg-ecjs1u5nCAzWeOooUlIadC6mNhN_EnNr1KEoyZ5K9agAxWrdj09gcXEF2vWnSG05W0gGqhXqULaagqbIpApEz3MH6KZILON17utfXxod7pV227BCxMgQAeATfxzC254H8XNjBRsUxfUmUAlfEDWSWD6Taciio0sAzDGLxCAAu-GwjrDf6LAl_WzcXWIjiZsw3oFxdLw-8zjXnBcN6ycs6WVHRa9-NzsmByWyqsKgQgvGkMUweAjl91NgTsUFXZgyu8G7oC7fhWHthBWJiPgQgoHm1pjyXvk0JnCo4YTk1rWLwz66ISEr3-75zylxommaucjc6gOjZlPVZo-DBz43O4J64k1YyTxakyFqDkDsecptmnX44KZ6DTbxjtWWD_RGtk7sr6uskhi_69vzDnF6nlsw4ZcSiALEMV3vvP749gwjf1kJcbmAtHdppHA9FXuCVVxhTsHjgF9vyg6IoV_FvPd0pq40B-Jm87B463uml-02jF-yRNR7tHaxeALEA33uV46jCfmXkpV4H26yY2NhBXyGtwCsE4n1NC8D0aI99u5NL0ZCDTLW0cny490a631qZSj0pLXoIOYRB5BO-79xqdjaWXBR4DRnoz1YeOac- -wuzB86Z3s9RmzzV7XjmKKvSiCjoTiSV2TDH5JH0lWRnqHwtd-ZWvzkzcwznkISNnpOhqUCitpEnu2Bce1ZdlR_qlW8r5gEOvijePmZ7jamP5GRgQxA1P5ID8DZbPgyWSY5vWfXxdgR-TyABJ1RC1u4VvMhCvopteR0Y9nzFOIVxE9tBH0jqcA7ncnOo1USPQXTgeU3lRAWjqKPvlZaCFBL5Eh6EE2JE9Ht9KwzdrVmMZW2HO3hWDFkHflUelpVBw2SgbaCRfZnjFhd1_kmut7FOZeW9t6aSimpKqeLlowRPhpyKODQdm66E6Kt-95Vn1AsfpQGRhjECndFT3BFnwWcs91SHpQS5MXW3vwTRRrYOJX1dl06HSLnca5ZZCARsZU4E42COdyucCWSCf4JxLJxLny47E3Uaf1UMA4eSUbXdNZ0_qY8fnegrj7qI0waPu6aFfhXq4g8MZoHeJ0-eHGNT9OcZYfW6UoxeM9cJxdcwNvokdWB7Rj5xhXsuqmKu7qt_lDYpmSOrukbytbWTDN4ku_iXkPpy1_I9C1smci09PiP3co1_vOuFS0ciAlRDWhMto0bap8iQfIUxj41DaKCQ3MuPh1BCgrdZUkmS6cWOHv1LiySXde0xxiGoYhisl1ewmrLLTWhIfpvPuPz1j0x3jypgRwkTyIo7M564S9brWCiiWPpQhR_mEQEpMdZaj3OaWRxQNhlvW1aj3bE-O5Q5eOO0gJsn4wdaT0gkZblLwjRnZ27Wgsk68GOmnYNrcb8ffju6gEjHusQTjj2hAaKG4wlA9LoMsJrIQE17ANoPBFGSKgLeTQ0pYPOM1igOsLYE8KGoPPsqyeG3Ht1MUPpR9aUuTbIuXKsiVZpL3SXK0kGT5FS151d-e1r1R_G5JIsNTRe6wK1TrGX4sJ4wt3vgB4Bh0XVT5H8BdB_jWrTwsP6owmxYQqYpRdpjC9wSvmw60dhvGNSDPunfebMOXROYbLy-6-CfMBWxsBfctpvHq5Fu4vc2mKm79CfOpleuHhYCnjgRxNn9JXyYg5co6OyXwhsrl_h4-4-VBEs_3pp1r4p_dk4Pg5n8ytJv4Ob2Ox_JjBv-wsrIrsiwdUanKSvhZp2g_k5gIF3VwxEtxyRcv_7bnmlpw_paLCC6VcIq3HTStACdIxBqFcG6cIuegkM2IfhXYAWPLVd9NIxd87KOqmC60QdbjN2yLXBdklqJIbERkT4SCjQjndBR1XjQke0nMC2roP2xfUWsmpPUNgDr71tQKdmbsai3_ah5Wj5_LTXMQKSh52Bm5FPRAxoi28ERxlEsbQWD9ricsrw3hv5p8_I2KMphcRFDPX-w4Jmq_U3zyK7VP0zLy1stc8ncCbV01QUAFE8-yUDsdxIIqEOnLWcDZM2KzjVEp0VXTRwDNnciGi0yke4CtvY4KHEHEkQmazYkOXqvlqHKDA90ffx-nfBK11ZZeI3bNIgfFkcNrM_FMYTNexFpImYYYIon9-pZVZovlkoCVV_gXFxRX-fuMqst3Bxmi6DYQZJXGm_5r1GE5T2FpZLpI3bTuwYAfY7MhRjVhJeWASh96WQ8VOR1l4pNC43i1WoABaJ25siu8_OPpaZIpLcg5kTAqNEejjSiY8l0B7Fwk8wQXjONkeBaFxCaD2F46GrCjJDqQeddkSo1nB3ed2sNU16JH1ITn_bnG16dK0K-yABXHR79X8-wiRef53MaUMGDn-kJEvsrj8IlWmgK-3Btax4O0KC3_qA9bqqc6ZTGLSYmfS6o-lLG_PfLZ1__xito-AttiVGnIn_pu0_nVli2Bzk27akPhmY6wzeOzhZpcbA_FSrsVIfxbzOuE3C4Hg13MUQnBZ5SShzZAziESYwoKW4LetESlFfOCsHEio69PpJ_TAlROOQk4W_l7FLbdgiG1KijaRc_R7K6l2edl5qr7ExPSc8o1TirGnrDMTu_ag8evomtVP43tRK2uYjGGG5x1FOXy3fPCD7HRyKqxOzebNRUWUboeb541-MxjMJL95kTg0KqQofNXQuQjTj_xMf-zVNYxvTs5tMw_HVFlN7sFy1lkYz3k_p6176CcfZTcqBLrGMbKbBeJTRgnnkPS_RV4c8iIuuxyzSLnGGtpQzMfxMh_mgUzyue9kg-DFFRWKnTjmIAriguKJ5JD32jHOLSLkwYPbFu_-YFD8mOQ0HDyy9hq7fjsHT6Hubz21AjwAXt6SB7hsc9rsIhc-CrpGPNTBzBFAXz-cnEfq4NYIDWQE1VD77HhNMRJ87mXOcpU2QQ4mvFKOHegvb3TT-_vNbsAWFJSJnSYtS5X2z6k7Y3QMBHflBjxCxm60I1KgOXSdLLu8MawiHkv1cZV_vmU7toq-ZinvCg8zDlPRoKGLTNy3kgyuWNa0e0zP6SPrB0cHnDQsjv3LAec27sH_uTIPzufDyUjuWRHrs3V6jF2DCHytpATZ23LGx87QOvmphZmPLF83ABHjGuXB2mO4s5RDE4NzD3guLiI1w-HpCdXItEQVA7N1IlUAFZvn7jC_p9xofzsQv78qhNkTaWQEmCLhH_J8lRjB_h5ZSNN76g-oZrleNPwnEl8tkhaScpf-1PFK6q4qmHWbwiIGlnDfdH1NCZgYCwem_2h2ZohmiwJuVLjnTND9vJOK-n86VHhlwcv6dbaQrWEY1JlFnmbw3w9kHWpRsfjrLCdR7QF_pPRTS6UrxjIDf1Q5viR4IAfUD6XFRitOJKFwit4XVL5ZMtZjRigUuU0EYq5EOPW0wZHj4h13MfohCJJ_1dv1U9rkw70WvovJ8ROtcC49CqlEvB6CnK7JDncMD7zTJ4NNVsG3BVl3kacdqJsddDg877mJHTDrK8qrUB3gHRH-qRxhLNtfQWwueI2TjmTs6u6cCKoSCZv0iaHRrUcDJgTtWh7e_rT1z5KzJlddh1AwQzmM2JTqUzLVUYvXdW1WnMIkszOEhPzerXMc-yrOE3zoezyqW4b-GzBdSleCtJKGzHKmVtzZtlUb8FCIyQmpw2qQb6c5lwFVVTiVGrbN_DfsESFvT_sTiBhfZtAcpxGhXdjxrvDxoAoByZGcxw6iKV6LoLU4xbxYq2Ogy5wf6whbwmA6lTxqqRo-YYol7g_jQUXVl_7w1-Wr-Fy_6wxxHddwXkxS_TOtpHmrSXgnv7htbIhXiSU_PDxRO2hXZplIaZD8dNf6Xvj2rxErpQOfxpsF0Hh6zzhuuCnF7wak4h6RF5wjpQgmMStHl_uSDarNlkVVAskdlkWNipLlGQdI2Z03_H2XGG7hZ_0m00]--></g></svg>