<?xml version="1.0" encoding="us-ascii" standalone="no"?><svg xmlns="http://www.w3.org/2000/svg" xmlns:xlink="http://www.w3.org/1999/xlink" contentStyleType="text/css" height="547.5px" preserveAspectRatio="none" style="width:1378px;height:547px;background:#FFFFFF;" version="1.1" viewBox="0 0 1378 547" width="1378.5px" zoomAndPan="magnify"><defs/><g><!--class Visitor--><g id="elem_Visitor"><rect codeLine="11" fill="#F1F1F1" height="108.8906" id="Visitor" rx="3.75" ry="3.75" style="stroke:#181818;stroke-width:0.75;" width="217.5" x="1014" y="18.795"/><ellipse cx="1084.875" cy="42.795" fill="#B4A7E5" rx="16.5" ry="16.5" style="stroke:#181818;stroke-width:1.5;"/><path d="M1078.7578,36.4434 L1078.7578,33.2091 L1089.8438,33.2091 L1089.8438,36.4434 L1086.1406,36.4434 L1086.1406,48.5606 L1089.8438,48.5606 L1089.8438,51.795 L1078.7578,51.795 L1078.7578,48.5606 L1082.4609,48.5606 L1082.4609,36.4434 L1078.7578,36.4434 Z " fill="#000000"/><text fill="#000000" font-family="sans-serif" font-size="21" font-style="italic" lengthAdjust="spacing" textLength="63" x="1115.625" y="50.065">Visitor</text><line style="stroke:#181818;stroke-width:0.75;" x1="1015.5" x2="1230" y1="66.795" y2="66.795"/><text fill="#000000" font-family="sans-serif" font-size="21" lengthAdjust="spacing" textLength="198" x="1023" y="92.2877">+visit(e: ElementA)</text><text fill="#000000" font-family="sans-serif" font-size="21" lengthAdjust="spacing" textLength="199.5" x="1023" y="116.733">+visit(e: ElementB)</text></g><!--class ConcreteVisitorA--><g id="elem_ConcreteVisitorA"><rect codeLine="16" fill="#F1F1F1" height="108.8906" id="ConcreteVisitorA" rx="3.75" ry="3.75" style="stroke:#181818;stroke-width:0.75;" width="220.5" x="667.5" y="228.99"/><ellipse cx="690" cy="252.99" fill="#ADD1B2" rx="16.5" ry="16.5" style="stroke:#181818;stroke-width:1.5;"/><path d="M694.4531,261.4509 Q693.5859,261.8963 692.625,262.1072 Q691.6641,262.3416 690.6094,262.3416 Q686.8594,262.3416 684.8672,259.8806 Q682.8984,257.3963 682.8984,252.7088 Q682.8984,248.0213 684.8672,245.5369 Q686.8594,243.0525 690.6094,243.0525 Q691.6641,243.0525 692.625,243.2869 Q693.6094,243.5213 694.4531,243.9666 L694.4531,248.0447 Q693.5156,247.1775 692.625,246.7791 Q691.7344,246.3572 690.7969,246.3572 Q688.7813,246.3572 687.75,247.9744 Q686.7188,249.5681 686.7188,252.7088 Q686.7188,255.8494 687.75,257.4666 Q688.7813,259.0603 690.7969,259.0603 Q691.7344,259.0603 692.625,258.6619 Q693.5156,258.24 694.4531,257.3728 L694.4531,261.4509 Z " fill="#000000"/><text fill="#000000" font-family="sans-serif" font-size="21" lengthAdjust="spacing" textLength="172.5" x="711" y="260.26">ConcreteVisitorA</text><line style="stroke:#181818;stroke-width:0.75;" x1="669" x2="886.5" y1="276.99" y2="276.99"/><text fill="#000000" font-family="sans-serif" font-size="21" lengthAdjust="spacing" textLength="198" x="676.5" y="302.4827">+visit(e: ElementA)</text><text fill="#000000" font-family="sans-serif" font-size="21" lengthAdjust="spacing" textLength="199.5" x="676.5" y="326.928">+visit(e: ElementB)</text></g><!--class ConcreteVisitorB--><g id="elem_ConcreteVisitorB"><rect codeLine="21" fill="#F1F1F1" height="108.8906" id="ConcreteVisitorB" rx="3.75" ry="3.75" style="stroke:#181818;stroke-width:0.75;" width="222" x="1146.75" y="228.99"/><ellipse cx="1169.25" cy="252.99" fill="#ADD1B2" rx="16.5" ry="16.5" style="stroke:#181818;stroke-width:1.5;"/><path d="M1173.7031,261.4509 Q1172.8359,261.8963 1171.875,262.1072 Q1170.9141,262.3416 1169.8594,262.3416 Q1166.1094,262.3416 1164.1172,259.8806 Q1162.1484,257.3963 1162.1484,252.7088 Q1162.1484,248.0213 1164.1172,245.5369 Q1166.1094,243.0525 1169.8594,243.0525 Q1170.9141,243.0525 1171.875,243.2869 Q1172.8594,243.5213 1173.7031,243.9666 L1173.7031,248.0447 Q1172.7656,247.1775 1171.875,246.7791 Q1170.9844,246.3572 1170.0469,246.3572 Q1168.0313,246.3572 1167,247.9744 Q1165.9688,249.5681 1165.9688,252.7088 Q1165.9688,255.8494 1167,257.4666 Q1168.0313,259.0603 1170.0469,259.0603 Q1170.9844,259.0603 1171.875,258.6619 Q1172.7656,258.24 1173.7031,257.3728 L1173.7031,261.4509 Z " fill="#000000"/><text fill="#000000" font-family="sans-serif" font-size="21" lengthAdjust="spacing" textLength="174" x="1190.25" y="260.26">ConcreteVisitorB</text><line style="stroke:#181818;stroke-width:0.75;" x1="1148.25" x2="1367.25" y1="276.99" y2="276.99"/><text fill="#000000" font-family="sans-serif" font-size="21" lengthAdjust="spacing" textLength="198" x="1155.75" y="302.4827">+visit(e: ElementA)</text><text fill="#000000" font-family="sans-serif" font-size="21" lengthAdjust="spacing" textLength="199.5" x="1155.75" y="326.928">+visit(e: ElementB)</text></g><!--class Element--><g id="elem_Element"><rect codeLine="26" fill="#F1F1F1" height="84.4453" id="Element" rx="3.75" ry="3.75" style="stroke:#181818;stroke-width:0.75;" width="208.5" x="406.5" y="241.215"/><ellipse cx="462.75" cy="265.215" fill="#B4A7E5" rx="16.5" ry="16.5" style="stroke:#181818;stroke-width:1.5;"/><path d="M456.6328,258.8634 L456.6328,255.6291 L467.7188,255.6291 L467.7188,258.8634 L464.0156,258.8634 L464.0156,270.9806 L467.7188,270.9806 L467.7188,274.215 L456.6328,274.215 L456.6328,270.9806 L460.3359,270.9806 L460.3359,258.8634 L456.6328,258.8634 Z " fill="#000000"/><text fill="#000000" font-family="sans-serif" font-size="21" font-style="italic" lengthAdjust="spacing" textLength="85.5" x="491.25" y="272.485">Element</text><line style="stroke:#181818;stroke-width:0.75;" x1="408" x2="613.5" y1="289.215" y2="289.215"/><text fill="#000000" font-family="sans-serif" font-size="21" lengthAdjust="spacing" textLength="190.5" x="415.5" y="314.7077">+accept(v: Visitor)</text></g><!--class ElementA--><g id="elem_ElementA"><rect codeLine="29" fill="#F1F1F1" height="108.8906" id="ElementA" rx="3.75" ry="3.75" style="stroke:#181818;stroke-width:0.75;" width="208.5" x="79.5" y="429.39"/><ellipse cx="129.675" cy="453.39" fill="#ADD1B2" rx="16.5" ry="16.5" style="stroke:#181818;stroke-width:1.5;"/><path d="M134.1281,461.8509 Q133.2609,462.2963 132.3,462.5072 Q131.3391,462.7416 130.2844,462.7416 Q126.5344,462.7416 124.5422,460.2806 Q122.5734,457.7963 122.5734,453.1088 Q122.5734,448.4213 124.5422,445.9369 Q126.5344,443.4525 130.2844,443.4525 Q131.3391,443.4525 132.3,443.6869 Q133.2844,443.9213 134.1281,444.3666 L134.1281,448.4447 Q133.1906,447.5775 132.3,447.1791 Q131.4094,446.7572 130.4719,446.7572 Q128.4563,446.7572 127.425,448.3744 Q126.3938,449.9681 126.3938,453.1088 Q126.3938,456.2494 127.425,457.8666 Q128.4563,459.4603 130.4719,459.4603 Q131.4094,459.4603 132.3,459.0619 Q133.1906,458.64 134.1281,457.7728 L134.1281,461.8509 Z " fill="#000000"/><text fill="#000000" font-family="sans-serif" font-size="21" lengthAdjust="spacing" textLength="99" x="156.825" y="460.66">ElementA</text><line style="stroke:#181818;stroke-width:0.75;" x1="81" x2="286.5" y1="477.39" y2="477.39"/><text fill="#000000" font-family="sans-serif" font-size="21" lengthAdjust="spacing" textLength="190.5" x="88.5" y="502.8827">+accept(v: Visitor)</text><text fill="#000000" font-family="sans-serif" font-size="21" lengthAdjust="spacing" textLength="120" x="88.5" y="527.328">+featureA()</text></g><!--class ElementB--><g id="elem_ElementB"><rect codeLine="33" fill="#F1F1F1" height="108.8906" id="ElementB" rx="3.75" ry="3.75" style="stroke:#181818;stroke-width:0.75;" width="208.5" x="535.5" y="429.39"/><ellipse cx="585" cy="453.39" fill="#ADD1B2" rx="16.5" ry="16.5" style="stroke:#181818;stroke-width:1.5;"/><path d="M589.4531,461.8509 Q588.5859,462.2963 587.625,462.5072 Q586.6641,462.7416 585.6094,462.7416 Q581.8594,462.7416 579.8672,460.2806 Q577.8984,457.7963 577.8984,453.1088 Q577.8984,448.4213 579.8672,445.9369 Q581.8594,443.4525 585.6094,443.4525 Q586.6641,443.4525 587.625,443.6869 Q588.6094,443.9213 589.4531,444.3666 L589.4531,448.4447 Q588.5156,447.5775 587.625,447.1791 Q586.7344,446.7572 585.7969,446.7572 Q583.7813,446.7572 582.75,448.3744 Q581.7188,449.9681 581.7188,453.1088 Q581.7188,456.2494 582.75,457.8666 Q583.7813,459.4603 585.7969,459.4603 Q586.7344,459.4603 587.625,459.0619 Q588.5156,458.64 589.4531,457.7728 L589.4531,461.8509 Z " fill="#000000"/><text fill="#000000" font-family="sans-serif" font-size="21" lengthAdjust="spacing" textLength="100.5" x="612" y="460.66">ElementB</text><line style="stroke:#181818;stroke-width:0.75;" x1="537" x2="742.5" y1="477.39" y2="477.39"/><text fill="#000000" font-family="sans-serif" font-size="21" lengthAdjust="spacing" textLength="190.5" x="544.5" y="502.8827">+accept(v: Visitor)</text><text fill="#000000" font-family="sans-serif" font-size="21" lengthAdjust="spacing" textLength="121.5" x="544.5" y="527.328">+featureB()</text></g><!--class Client--><g id="elem_Client"><rect codeLine="38" fill="#F1F1F1" height="48" id="Client" rx="3.75" ry="3.75" style="stroke:#181818;stroke-width:0.75;" width="106.5" x="145.5" y="259.44"/><ellipse cx="168" cy="283.44" fill="#ADD1B2" rx="16.5" ry="16.5" style="stroke:#181818;stroke-width:1.5;"/><path d="M172.4531,291.9009 Q171.5859,292.3463 170.625,292.5572 Q169.6641,292.7916 168.6094,292.7916 Q164.8594,292.7916 162.8672,290.3306 Q160.8984,287.8463 160.8984,283.1588 Q160.8984,278.4713 162.8672,275.9869 Q164.8594,273.5025 168.6094,273.5025 Q169.6641,273.5025 170.625,273.7369 Q171.6094,273.9713 172.4531,274.4166 L172.4531,278.4947 Q171.5156,277.6275 170.625,277.2291 Q169.7344,276.8072 168.7969,276.8072 Q166.7813,276.8072 165.75,278.4244 Q164.7188,280.0181 164.7188,283.1588 Q164.7188,286.2994 165.75,287.9166 Q166.7813,289.5103 168.7969,289.5103 Q169.7344,289.5103 170.625,289.1119 Q171.5156,288.69 172.4531,287.8228 L172.4531,291.9009 Z " fill="#000000"/><text fill="#000000" font-family="sans-serif" font-size="21" lengthAdjust="spacing" textLength="58.5" x="189" y="290.71">Client</text></g><g id="elem_clientcode"><path d="M9,9 L9,137.4961 A0,0 0 0 0 9,137.4961 L192.75,137.4961 L198.75,258.855 L204.75,137.4961 L388.5,137.4961 A0,0 0 0 0 388.5,137.4961 L388.5,24 L373.5,9 L9,9 A0,0 0 0 0 9,9 " fill="#FEFFDD" style="stroke:#181818;stroke-width:0.75;"/><path d="M373.5,9 L373.5,24 L388.5,24 L373.5,9 " fill="#FEFFDD" style="stroke:#181818;stroke-width:0.75;"/><text fill="#000000" font-family="sans-serif" font-size="19.5" lengthAdjust="spacing" textLength="348" x="18" y="34.6003">Collection&lt;Element&gt; elements = ...</text><text fill="#000000" font-family="sans-serif" font-size="19.5" lengthAdjust="spacing" textLength="310.5" x="18" y="57.2996">var cv = new ConcreteVisitorA();</text><text fill="#000000" font-family="sans-serif" font-size="19.5" lengthAdjust="spacing" textLength="231" x="18" y="79.9988">for (var el :  elements) {</text><text fill="#000000" font-family="sans-serif" font-size="19.5" lengthAdjust="spacing" textLength="129" x="66" y="102.698">el.accept(cv);</text><text fill="#000000" font-family="sans-serif" font-size="19.5" lengthAdjust="spacing" textLength="12" x="18" y="125.3972">}</text></g><g id="elem_dbldispatch"><path d="M341.25,464.985 L341.25,477.825 L288.405,483.825 L341.25,489.825 L341.25,502.6842 A0,0 0 0 0 341.25,502.6842 L482.25,502.6842 A0,0 0 0 0 482.25,502.6842 L482.25,479.985 L467.25,464.985 L341.25,464.985 A0,0 0 0 0 341.25,464.985 " fill="#FEFFDD" style="stroke:#181818;stroke-width:0.75;"/><path d="M467.25,464.985 L467.25,479.985 L482.25,479.985 L467.25,464.985 " fill="#FEFFDD" style="stroke:#181818;stroke-width:0.75;"/><text fill="#000000" font-family="sans-serif" font-size="19.5" lengthAdjust="spacing" textLength="109.5" x="350.25" y="490.5853">v.visit(this);</text></g><g id="elem_dispatch"><path d="M941.25,264.585 L941.25,277.44 L888.375,283.44 L941.25,289.44 L941.25,302.2842 A0,0 0 0 0 941.25,302.2842 L1094.25,302.2842 A0,0 0 0 0 1094.25,302.2842 L1094.25,279.585 L1079.25,264.585 L941.25,264.585 A0,0 0 0 0 941.25,264.585 " fill="#FEFFDD" style="stroke:#181818;stroke-width:0.75;"/><path d="M1079.25,264.585 L1079.25,279.585 L1094.25,279.585 L1079.25,264.585 " fill="#FEFFDD" style="stroke:#181818;stroke-width:0.75;"/><text fill="#000000" font-family="sans-serif" font-size="19.5" lengthAdjust="spacing" textLength="121.5" x="950.25" y="290.1853">e.featureA();</text></g><!--reverse link Visitor to ConcreteVisitorA--><g id="link_Visitor_ConcreteVisitorA"><path d="M1010.3099,142.2733 C958.9949,173.0983 917.925,197.76 866.67,228.54 " fill="none" id="Visitor-backto-ConcreteVisitorA" style="stroke:#181818;stroke-width:1.5;stroke-dasharray:7.0,7.0;"/><polygon fill="none" points="1033.455,128.37,1005.6754,134.5583,1014.9443,149.9884,1033.455,128.37" style="stroke:#181818;stroke-width:1.5;"/></g><!--reverse link Visitor to ConcreteVisitorB--><g id="link_Visitor_ConcreteVisitorB"><path d="M1172.2505,150.7277 C1192.3955,181.6727 1202.97,197.865 1223.1,228.765 " fill="none" id="Visitor-backto-ConcreteVisitorB" style="stroke:#181818;stroke-width:1.5;stroke-dasharray:7.0,7.0;"/><polygon fill="none" points="1157.52,128.1,1164.7079,155.6379,1179.7931,145.8175,1157.52,128.1" style="stroke:#181818;stroke-width:1.5;"/></g><!--reverse link Element to ElementA--><g id="link_Element_ElementA"><path d="M419.083,340.2751 C369.643,370.1101 325.59,396.705 272.115,428.985 " fill="none" id="Element-backto-ElementA" style="stroke:#181818;stroke-width:1.5;stroke-dasharray:7.0,7.0;"/><polygon fill="none" points="442.2,326.325,414.433,332.5695,423.7331,347.9808,442.2,326.325" style="stroke:#181818;stroke-width:1.5;"/></g><!--reverse link Element to ElementB--><g id="link_Element_ElementB"><path d="M552.5668,348.9258 C572.0668,378.7608 583.8,396.705 604.89,428.985 " fill="none" id="Element-backto-ElementB" style="stroke:#181818;stroke-width:1.5;stroke-dasharray:7.0,7.0;"/><polygon fill="none" points="537.795,326.325,545.0332,353.8497,560.1003,344.0019,537.795,326.325" style="stroke:#181818;stroke-width:1.5;"/></g><!--link Client to Element--><g id="link_Client_Element"><path codeLine="40" d="M252.39,283.44 C294.555,283.44 345.57,283.44 397.155,283.44 " fill="none" id="Client-to-Element" style="stroke:#181818;stroke-width:1.5;"/><polygon fill="#181818" points="406.155,283.44,392.655,277.44,398.655,283.44,392.655,289.44,406.155,283.44" style="stroke:#181818;stroke-width:1.5;"/><polygon fill="#000000" points="293.25,266.2896,279.6824,261.8812,279.6824,270.698,293.25,266.2896" style="stroke:#000000;stroke-width:1.5;"/><text fill="#000000" font-family="sans-serif" font-size="19.5" lengthAdjust="spacing" textLength="79.5" x="299.25" y="273.0403">manage</text><text fill="#000000" font-family="sans-serif" font-size="19.5" lengthAdjust="spacing" textLength="10.5" x="384.3272" y="277.8907">*</text></g><!--SRC=[hPJFZjCm4CRlVefHBqr1IU709GjTjGjQEErX4HVAmNMcYRNEEB8dWMMr3yHpy6BOpPyM5OIqeXStpZU_-SOppXokaT190uMMfPCrs3rmXL2WroL18vdH4NpINhDrOWxlTLcPUz3a6-smWBspDLJCZS-NIuTxgO9EKvcLhMkNFIOTC7xPzHoGLC1rIBMnzcw4XsGb-f3Y5fa3mGj_fwcHqPKoqlirizExbl63idIhloEy45v9W_0oUoKgNI1WtV0zr5Zlq7aHM1zltjxaq9ZMXvB0QAIu5Zz_D4Y598KUR0koPHV-NLx6a2jBZCH2XyM5Ud0o-20W_9uVYaWmXtS6ww1SB_wylrc8Ho4ErYDKEMGSK6lGTTEh_DFnSVklAJR_DSNnC8PN8qegXGqdNJxcY4NtXaRugP5_Hn_szoYvTRXEpcYRfzCsoMb3uYom4FqAwMhsR3RoSgWbXM64LHo7Ng1i7AzlCYONP1bXTcMDGSNQqkiXS0KuMdi3MPPjgPCEL1UU2B-U3K6okDZIFhGbYJ8qaCC4MC33bhQC9XkgKbrKFyv0-d0TegTeIGnUkgpl7LVQBouEec9d2kt3rLFL8CBiUAw3PXI8gLdfRu5dSvkUn1njG9fE9pgVsf9-3fUoGFhYmaU3WsIW_080]--></g></svg>